<?xml version="1.0" encoding="UTF-8"?><svg id="Layer_2" xmlns="http://www.w3.org/2000/svg" viewBox="0 0 804.71 1285.25"><defs><style>.cls-1{fill:#050505;}.cls-2{fill:#fff;}.cls-3{fill:#6ac2ef;}.cls-4{fill:#866449;}</style></defs><g id="Layer_1-2"><path class="cls-1" d="m583.16,406.5s-50.87-35.41-99.34-33.67c-25.79.92-44.89,23.24-43.21,23.08,9.39-.86,41.92-18.02,81.48-3.64,39.56,14.38,53.65,22.77,57.07,21.61,3.42-1.16,4-7.38,4-7.38Z"/><path class="cls-1" d="m578.4,420.04c-3.34,0-7.76-1.86-17.42-5.94-8.73-3.68-21.94-9.25-40.95-16.16-29.14-10.6-54.77-2.8-68.53,1.39-4.47,1.36-7.7,2.34-10.34,2.59l-3.54.33-4.08-5.91,1.7-3.54c2.21-4.36,21.86-25.04,48.37-25.99,49.94-1.8,100.85,33.26,103,34.75l2.88,2.01-.32,3.49c-.16,1.69-1.28,10.23-8.06,12.53-.88.3-1.74.45-2.7.45Zm-88.9-39.53c10.58,0,22.27,1.6,34.65,6.1,19.3,7.02,32.67,12.65,41.51,16.39.19.08.37.15.56.23-17.89-10.02-50.74-25.53-82.19-24.38-5.89.21-11.4,1.72-16.32,3.82,6.51-1.26,13.83-2.16,21.79-2.16Z"/><path class="cls-1" d="m673.83,410.04s18.76-34.53,51.72-37.45c20.45-1.81,36.96,13.31,33.16,13.65-3.8.34-18.33-11.3-37.53-4.47-19.96,7.1-41.51,35.71-45.17,32.26-1.97-1.86-.6-1.02-2.17-3.99Z"/><path class="cls-1" d="m676.62,420.52c-1.66,0-3.21-.65-4.75-2.1-1.64-1.54-2.55-2.71-3.03-4.81-.06-.21-.17-.42-.34-.75l-1.51-2.85,1.54-2.84c.83-1.52,20.71-37.41,56.48-40.58,19.39-1.7,39.52,10.5,40.24,18.56.33,3.65-2.31,6.77-6.01,7.1-2.53.22-4.87-.77-8.1-2.15-6.4-2.74-16.08-6.88-27.96-2.64-10.07,3.58-21.4,14.01-29.66,21.62-7.27,6.69-12.43,11.44-16.9,11.44Z"/><path class="cls-1" d="m272.29,131.49S381.5,9.93,504.72,32.64c123.23,22.71,182,178.66,216.73,231.42,34.73,52.76,60.11,43.41,60.11,43.41,0,0-29.05,24.04-50.76,10.02-21.71-14.03,14.36,19.7,0,59.78-14.36,40.07-83.15,115.55-100.18,174.32-17.03,58.77-489.9-18.03-489.9-18.03,0,0-64.79-56.1-73.47-170.98-8.68-114.88,105.53-273.17,205.04-231.09Z"/><path class="cls-1" d="m531,577.72c-36.23,0-85.36-2.53-152.11-9.1-119.09-11.73-237.63-30.9-238.81-31.09l-1.13-.18-.86-.75c-2.7-2.33-66.14-58.51-74.84-173.72-5.71-75.45,40.08-170.66,104.23-216.76,35.34-25.4,71.16-32.07,103.77-19.39,15.36-16.08,119.21-119.24,234.2-98.04,101.75,18.75,159.02,124.17,196.91,193.93,8.56,15.76,15.95,29.37,22.44,39.23,32.13,48.81,55.2,41.9,55.43,41.83l20.21-6.65-16.32,13.54c-1.25,1.03-30.21,24.61-53.83,11.3,4.64,11.35,12.78,33.06,4.29,56.75-6.33,17.66-22.19,40.91-40.57,67.84-23.43,34.35-49.99,73.27-59.54,106.24-2.08,7.18-7.26,25.01-103.48,25.01Zm-388.46-47.93c12.67,2.03,124.68,19.76,237.17,30.84,214.24,21.11,244.13-.06,247.05-10.15,9.91-34.2,36.85-73.69,60.62-108.53,17.31-25.37,33.66-49.33,39.64-66.03,7.83-21.86-.36-41.77-4.77-52.47-2.46-5.98-3.95-9.59-.91-12.12,3.2-2.65,7.3,0,11.64,2.8,11.61,7.51,26.18,2.23,35.78-3.02-11.72-2.89-29.78-13.09-50.67-44.82-6.68-10.15-14.15-23.89-22.8-39.82-37.16-68.42-93.33-171.81-191.31-189.87-119.52-22.03-227.63,96.38-228.71,97.58l-1.91,2.13-2.64-1.11c-38.64-16.33-74.93.48-98.56,17.46-61.06,43.88-106.33,137.92-100.91,209.63,7.92,104.8,63.86,160.55,71.29,167.51Z"/><path class="cls-1" d="m238.72,249.11s-.35-131.24,85.32-184.05c85.67-52.8,204.66,8.51,253.77,21.26,49.11,12.75,59.2-6.48,59.2-6.48,0,0-4.37,29.97-24.86,33.3-20.49,3.33,19.17,4.01,32.18,35.63,13.01,31.62,12.64,113.64,34.13,157.84,21.49,44.2-301.71,252.99-301.71,252.99,0,0-68.82,1.44-135.84-62.36-67.02-63.8-84.16-219.63-2.19-248.13Z"/><path class="cls-1" d="m633.16,375.81c-21.6,19.51-52.24,44.45-95.57,76.47-77.3,57.12-158.27,109.51-159.08,110.04l-.77.5-.91.02c-2.87.06-70.92.73-138.13-63.25-44.02-41.9-67.98-123.3-54.57-185.32,7.39-34.16,25.15-57.42,51.41-67.42.5-17.85,6.86-135.25,86.81-184.52,70.74-43.6,161.63-11.59,221.77,9.58,13.59,4.78,25.32,8.92,34.5,11.3,45.42,11.8,55.46-4.74,55.56-4.91l8.46-14.84-2.44,16.86c-.19,1.29-4.76,30.93-26,35.72,8.88,4.27,25.41,12.82,33.11,31.51,5.73,13.93,8.8,36.34,12.34,62.28,4.53,33.09,9.65,70.59,21.71,95.38,2.62,5.4,9.13,18.81-48.22,70.61Zm-257.35,180.56c8.64-5.61,84.95-55.35,157.96-109.3,139.06-102.76,145.48-131.47,141.79-139.05-12.5-25.72-17.7-63.76-22.29-97.33-3.34-24.44-6.5-47.53-11.92-60.69-7.1-17.25-22.71-24.7-31.09-28.71-4.69-2.24-7.52-3.59-7.07-6.74.48-3.3,4.34-3.94,8.45-4.6,10.96-1.78,16.81-12.77,19.7-21.06-8.54,4.59-24.8,8.23-54.33.56-9.44-2.45-21.3-6.62-35.02-11.46-58.98-20.77-148.12-52.16-216.25-10.18-83.1,51.21-83.79,180-83.79,181.29v2.3s-2.17.76-2.17.76c-31.82,11.07-44.4,40.62-49.35,63.47-12.77,59.03,10.87,139.45,52.71,179.28,61.14,58.2,124.5,61.31,132.67,61.46Z"/><path class="cls-1" d="m617.16,234.35s.35-131.24-85.32-184.05c-85.67-52.8-204.66,8.51-253.77,21.26-49.11,12.75-59.2-6.48-59.2-6.48,0,0,4.37,29.97,24.86,33.3,20.49,3.33-19.17,4.01-32.18,35.63-13.01,31.62-12.64,113.64-34.13,157.84-21.49,44.2,301.71,252.99,301.71,252.99,0,0,68.82,1.44,135.84-62.36,67.02-63.8,84.16-219.63,2.19-248.13Z"/><path class="cls-1" d="m174.51,290.44c12.06-24.79,17.18-62.29,21.71-95.38,3.55-25.94,6.61-48.34,12.34-62.28,7.7-18.69,24.23-27.25,33.11-31.51-21.24-4.79-25.81-34.43-26-35.72l-2.44-16.86,8.46,14.84c.1.17,10.14,16.7,55.56,4.91,9.18-2.38,20.91-6.52,34.5-11.3,60.14-21.18,151.03-53.19,221.77-9.58,79.96,49.27,86.32,166.67,86.81,184.52,26.26,10,44.02,33.26,51.41,67.42,13.42,62.02-10.55,143.42-54.57,185.32-67.21,63.98-135.27,63.31-138.13,63.25l-.91-.02-.77-.5c-.81-.52-81.78-52.91-159.08-110.04-43.33-32.02-73.97-56.96-95.57-76.47-57.35-51.8-50.84-65.21-48.22-70.61Zm438.23,189.71c41.84-39.82,65.48-120.25,52.71-179.28-4.95-22.84-17.52-52.4-49.35-63.47l-2.17-.76v-2.3c0-1.29-.68-130.07-83.78-181.29-68.12-41.99-157.26-10.6-216.25,10.18-13.73,4.83-25.58,9.01-35.02,11.46-29.53,7.67-45.79,4.03-54.33-.56,2.89,8.3,8.73,19.28,19.7,21.06,4.1.67,7.97,1.3,8.45,4.6.45,3.15-2.38,4.5-7.07,6.74-8.39,4-23.99,11.46-31.09,28.71-5.42,13.17-8.58,36.25-11.92,60.69-4.59,33.56-9.79,71.61-22.29,97.33-3.69,7.58,2.73,36.29,141.79,139.05,73.01,53.95,149.32,103.69,157.96,109.3,8.17-.15,71.52-3.26,132.67-61.46Z"/><path class="cls-1" d="m470.29,226.6s-55.23-119.05-155.2-130.63c-99.97-11.58-181.82,94.34-220.92,126.68-39.09,32.34-56.38,19.18-56.38,19.18,0,0,16.65,25.3,36.62,19.64,19.97-5.66-15.67,11.75-14.07,45.9,1.59,34.15,36.65,108.31,35.89,157.45-.76,49.14,380.44,101.5,380.44,101.5,0,0,62.96-27.83,96.67-114,33.72-86.17-16.71-234.61-103.04-225.73Z"/><path class="cls-1" d="m93,464.78c.43-27.56-10.8-63.71-20.71-95.6-7.77-25-14.47-46.6-15.18-61.65-.94-20.19,10.42-34.94,16.66-42.57-21.27,4.65-37.96-20.27-38.68-21.36l-9.34-14.24,13.95,9.87c.16.11,16.25,10.84,52.41-19.07,7.31-6.04,16.19-14.76,26.47-24.84,45.53-44.65,114.32-112.12,196.87-102.56,93.29,10.79,148.75,114.46,156.76,130.43,28.03-2.05,53.96,11.5,75.12,39.32,38.41,50.51,51.15,134.4,29,190.99-33.81,86.42-95.75,114.62-98.37,115.77l-.84.37-.91-.12c-.95-.13-96.49-13.32-190.7-32.36-52.81-10.67-91.13-20.29-118.95-28.83-73.88-22.65-73.66-37.56-73.57-43.57Zm477.33-13.62c21.05-53.79,8.43-136.66-28.13-184.73-14.15-18.6-38.06-40.05-71.57-36.61l-2.29.23-.97-2.09c-.54-1.17-55.68-117.56-152.65-128.78-79.49-9.2-146.96,56.97-191.61,100.75-10.39,10.19-19.36,18.99-26.88,25.21-23.51,19.45-39.78,23.04-49.46,22.49,6.13,6.3,16.08,13.78,26.76,10.75,4-1.13,7.77-2.2,9.6.59,1.74,2.66-.25,5.09-3.55,9.1-5.9,7.18-16.88,20.53-16.02,39.17.66,14.23,7.58,36.48,14.89,60.03,10.05,32.35,21.44,69.02,21,97.61-.13,8.43,17.83,31.72,187.32,65.96,88.98,17.98,179.17,30.74,189.38,32.16,7.34-3.6,63.42-33.23,94.18-111.84Z"/><path class="cls-1" d="m628.46,325.2s50.19-121.27-9-202.66c-59.19-81.4-192.55-69.89-242.82-76.75-50.27-6.86-52.3-28.49-52.3-28.49,0,0-7.34,29.39,10.35,40.25,17.69,10.86-19.25-3.57-43.3,20.73-24.05,24.3-54.87,100.31-91.54,133.03-36.67,32.72,182.97,348.65,182.97,348.65,0,0,63.11,27.48,149.35-6.07,86.23-33.55,161.3-171.19,96.3-228.69Z"/><path class="cls-1" d="m197.7,208.91c20.57-18.35,39.56-51.09,56.32-79.98,13.14-22.65,24.48-42.21,35.08-52.92,14.22-14.37,32.77-15.99,42.6-16.57-17.83-12.5-10.79-41.65-10.48-42.92l4.15-16.52,2.19,16.95c.03.19,3.03,19.3,49.53,25.65,9.39,1.28,21.82,1.92,36.21,2.65,63.68,3.26,159.91,8.18,208.79,75.39,55.24,75.95,16.52,186.96,10.2,203.67,20.49,19.23,28.08,47.49,21.94,81.9-11.15,62.46-64.25,128.66-120.88,150.69-86.48,33.65-149.18,7.17-151.8,6.03l-.84-.36-.52-.75c-.55-.79-55.54-80.02-105.35-162.22-27.92-46.08-46.78-80.79-59.35-107.04-33.37-69.7-22.25-79.64-17.77-83.64Zm333.29,341.98c53.83-20.94,106.26-86.35,116.87-145.81,4.11-23.01,3.7-55.13-21.54-77.46l-1.72-1.53.88-2.13c.49-1.19,48.78-120.58-8.63-199.53-47.06-64.72-141.44-69.55-203.9-72.75-14.53-.74-27.09-1.39-36.75-2.71-30.23-4.13-43.89-13.67-50.04-21.16-.48,8.77.75,21.16,10.22,26.97,3.54,2.17,6.88,4.23,6.06,7.46-.78,3.08-3.91,3.26-9.1,3.55-9.28.52-26.54,1.48-39.67,14.74-10.02,10.12-21.71,30.28-34.08,51.62-17,29.3-36.26,62.52-57.6,81.56-6.29,5.61-11.26,34.61,78.33,182.49,47.04,77.65,98.73,152.64,104.59,161.12,7.62,2.96,67.4,24.16,146.07-6.45Z"/><path class="cls-1" d="m299.02,107.51s-128.45-26.91-197.51,46.31c-69.05,73.21-33.09,202.15-30.54,252.82,2.55,50.67-18.33,56.66-18.33,56.66,0,0,30.24,1.78,37.64-17.61,7.4-19.39.05,19.58,28.38,38.73,28.33,19.14,108.73,35.38,147.66,65.37,38.94,29.99,308.82-244.26,308.82-244.26,0,0,15.34-67.1-33.58-145.65-48.91-78.55-198.05-126.87-242.55-52.37Z"/><path class="cls-1" d="m264.36,552.34c-21.84-16.82-57.53-29.43-89.01-40.56-24.69-8.72-46-16.26-58.49-24.69-16.75-11.32-21.78-29.25-24.16-38.8-8.99,19.83-38.94,18.31-40.24,18.23l-17-1.03,16.25-5.28c.18-.06,18.41-6.55,16.05-53.42-.48-9.47-2.15-21.8-4.09-36.07-8.57-63.19-21.52-158.67,35.5-219.12,64.43-68.33,180.69-50.8,198.27-47.67,15.11-23.7,41.48-36.38,76.43-36.7,63.45-.59,138.31,39.36,170.44,90.94,49.05,78.77,34.62,145.28,33.98,148.07l-.2.89-.64.65c-.67.68-68.37,69.38-139.96,133.52-40.12,35.95-70.75,60.91-94.23,78.11-62.33,45.68-74.15,36.59-78.91,32.93Zm274.47-390.76c-30.53-49.03-104.5-88.46-164.9-87.9-23.37.22-54.86,6.56-72.14,35.48l-1.18,1.98-2.25-.47c-1.26-.26-127.52-25.65-194.49,45.36-54.9,58.21-42.21,151.86-33.8,213.83,1.96,14.42,3.64,26.87,4.13,36.62,1.53,30.47-5.32,45.66-11.54,53.09,8.71-1.15,20.65-4.65,24.61-15.03,1.48-3.88,2.88-7.54,6.21-7.34,3.18.2,3.93,3.24,5.17,8.29,2.22,9.02,6.36,25.81,21.82,36.26,11.8,7.98,33.77,15.74,57.03,23.96,31.94,11.29,68.14,24.08,90.8,41.53,6.67,5.15,36.09,4.67,164.87-110.71,67.61-60.58,131.76-125.24,139.01-132.57,1.51-8.03,11.28-70.7-33.34-142.36Z"/><path class="cls-2" d="m210.16,646.54s51.43,135.25,216.4,138.92c164.97,3.67,217.73-91.5,225.08-195.69,7.35-104.19,17.37-126.57,13.36-163.63,0,0-53.77-15.36-66.79-84.15-13.02-68.79-46.08-140.26-129.57-129.57-83.49,10.69-108.2,55.1-133.58,30.72,0,0-39.41-4.68-62.45,41.41-23.04,46.08-39.07,164.64-86.83,203.04,0,0-88.83-50.4-98.51,38.74-8.35,76.81,57.1,122.89,122.89,120.22Z"/><path class="cls-1" d="m435.7,791.59c-3.06,0-6.13-.03-9.27-.1-87.25-1.94-142.91-40.58-174.24-72.65-27.63-28.28-41.49-56.03-45.98-66.17-37.56.37-73.41-14.18-97.03-39.45-21.93-23.46-31.57-53.74-27.9-87.55,2.88-26.46,12.78-44.2,29.44-52.73,26.95-13.79,62.62,1.61,74.26,7.41,28.34-25.73,45.49-84.34,59.37-131.74,7.63-26.07,14.84-50.69,22.88-66.77,24.65-49.31,66.77-44.91,68.55-44.7,1.3.15,2.52.73,3.46,1.64,9.89,9.5,18.42,6.15,41.62-4.92,19.69-9.4,46.65-22.27,87.01-27.43,70.81-9.07,117.89,37.43,136.26,134.43,12.13,64.07,60.49,78.88,62.54,79.48,2.34.68,4.06,2.72,4.32,5.14,2.28,21.04.16,37.62-3.32,65.09-2.83,22.26-6.71,52.76-10.01,99.62-6.51,92.38-50.56,201.39-221.96,201.4Zm-225.53-151.08c2.49,0,4.74,1.54,5.63,3.88.5,1.31,52.13,131.51,210.9,135.05,136.24,3.07,209.82-60.93,218.93-190.09,3.33-47.2,7.23-77.88,10.08-100.29,3.27-25.71,5.16-40.62,3.66-58.5-13.3-5.15-55.46-26.08-67.08-87.45-17.23-90.99-58.58-132.95-122.89-124.71-38.45,4.92-64.4,17.31-83.35,26.35-21.74,10.37-37.65,17.96-53.48,4.27-7.42-.15-36.26,1.61-54.57,38.22-7.56,15.11-14.62,39.23-22.09,64.76-15.6,53.29-33.28,113.69-66.35,140.28-1.92,1.55-4.6,1.76-6.75.55-.4-.23-40.49-22.55-66.63-9.14-12.8,6.57-20.51,21.13-22.92,43.29-3.28,30.22,5.26,57.2,24.72,78.02,22.13,23.68,56.48,36.97,91.93,35.53.08,0,.16,0,.24,0Z"/><ellipse class="cls-1" cx="343.39" cy="496.6" rx="11.04" ry="20.54"/><path class="cls-1" d="m343.39,523.16c-9.73,0-17.07-11.42-17.07-26.56s7.34-26.56,17.07-26.56,17.07,11.42,17.07,26.56-7.34,26.56-17.07,26.56Zm0-41.08c-.96,0-5.01,4.84-5.01,14.51s4.06,14.51,5.01,14.51,5.01-4.84,5.01-14.51-4.06-14.51-5.01-14.51Z"/><ellipse class="cls-1" cx="531.59" cy="488.25" rx="11.04" ry="20.54"/><path class="cls-1" d="m531.59,514.81c-9.73,0-17.07-11.42-17.07-26.56s7.34-26.56,17.07-26.56,17.07,11.42,17.07,26.56-7.34,26.56-17.07,26.56Zm0-41.08c-.96,0-5.01,4.84-5.01,14.51s4.06,14.51,5.01,14.51,5.01-4.84,5.01-14.51-4.05-14.51-5.01-14.51Z"/><path class="cls-1" d="m486.66,693.14c-2.67.75-5.45,1.4-8.36,1.93-30.81,5.62-64.77-4.26-100.92-29.35-2.74-1.9-3.41-5.65-1.51-8.39,1.9-2.74,5.65-3.41,8.39-1.51,33.42,23.2,64.34,32.42,91.88,27.4,31.29-5.72,47.16-28.19,47.32-28.42,1.89-2.74,5.64-3.43,8.38-1.54,2.74,1.89,3.43,5.64,1.54,8.38-.69,1-16.06,22.86-46.72,31.5Z"/><path class="cls-1" d="m797.41,1093.63c-11.6-21.03-73.23-195.4-124.71-226.22-51.48-30.82-83.38-32.63-80.48-46.4,2.9-13.78,11.6-15.59,3.63-27.55-7.95-11.93,6.43-24.22-10.74-44.78-27.34,17.15-63.7,30.07-112.15,35.36-92.26,10.06-154.3-18.54-193.95-51.12-3.48.03-32.1.89-29.37,20.3,2.9,20.66-16.68,36.62-11.6,57.28,5.08,20.66,6.53,25.38,6.53,25.38,0,0-55.1,5.44-96.43,49.3-41.33,43.87-150.81,209.18-143.56,221.14,7.25,11.96,241.81,183.08,298.72,174.38,56.92-8.7,418-130.51,450.26-145.74,32.27-15.23,55.47-20.3,43.87-41.33Z"/><path class="cls-1" d="m299.08,1285.25c-66.1,0-290.62-164.29-298.16-176.72-1.83-3.01-6.68-11.02,53.64-103.15,28.97-44.24,68.17-99.46,90.46-123.12,35.15-37.31,79.37-47.48,94.14-49.93-1-3.76-2.66-10.19-5.26-20.82-2.98-12.15,1.43-22.49,5.7-32.49,3.62-8.48,7.04-16.49,5.82-25.21-.81-5.79.56-10.8,4.07-14.88,8.26-9.59,26.01-10.24,29.48-10.27,1.05-.05,1.97.33,2.75.97,50.6,41.58,114.78,58.46,190.78,50.17,44.16-4.82,81.29-16.5,110.35-34.73,1.8-1.13,4.17-.76,5.53.88,11.3,13.54,10.29,24.1,9.47,32.6-.5,5.19-.86,8.95,1.55,12.55,6.55,9.82,3.79,15.14.87,20.77-1.39,2.68-2.97,5.72-3.87,10.02-.87,4.12,7.27,7.77,22.93,14.38,13.84,5.85,32.8,13.85,55.57,27.49,41.64,24.92,87.84,136.49,112.67,196.43,6.26,15.13,11.21,27.08,13.59,31.38h0c3.55,6.44,4.43,12.04,2.71,17.14-3.4,10.06-16.04,15.63-33.52,23.33-4.67,2.06-9.7,4.27-14.97,6.76-34.84,16.44-397.06,137.78-451.44,146.1-1.5.23-3.12.34-4.85.34ZM8.46,1104.45c12.27,14.95,240.39,180.17,294.18,172.03,54.06-8.26,414.41-129.02,449.09-145.38,5.34-2.52,10.44-4.77,15.17-6.85,14.91-6.57,26.69-11.76,28.89-18.26.92-2.71.23-6.08-2.1-10.3-2.6-4.72-7.38-16.27-14-32.24-22.7-54.82-69.95-168.91-109.17-192.38-22.26-13.33-40.9-21.2-54.51-26.95-18.9-7.98-30.3-12.8-27.95-23.99,1.14-5.44,3.09-9.18,4.65-12.19,2.51-4.85,3.36-6.48-.4-12.12-4.09-6.13-3.5-12.21-2.94-18.09.67-6.93,1.35-14.07-5.29-23.42-29.64,17.76-66.84,29.19-110.66,33.96-77.74,8.47-143.63-8.7-195.88-51.05-6.54.28-17.1,2.05-21.6,7.27-1.87,2.17-2.55,4.83-2.09,8.14,1.55,11.07-2.5,20.56-6.42,29.74-3.89,9.12-7.57,17.73-5.26,27.12,4.95,20.14,6.45,25.09,6.46,25.14.37,1.22.18,2.54-.53,3.61-.71,1.06-1.85,1.75-3.12,1.88-.54.05-54.07,5.87-93.75,47.99-43.79,46.47-142.69,199.96-142.76,216.36Z"/><rect class="cls-3" x="564" y="990.01" width="55.4" height="33.45" transform="translate(1426.27 189.97) rotate(76.06)"/><rect class="cls-4" x="605.92" y="979.59" width="55.4" height="33.22" transform="translate(-180.63 1851.12) rotate(-103.94)"/><path class="cls-1" d="m397.18,394.04s-28.19-17.54-66.02-13.49c-37.83,4.05-63.29,23.83-57.5,28.11,5.79,4.28,34.13-14.03,61.98-14.39,27.85-.35,58.91,10.32,64.62,13.92,5.71,3.6,5.76-1.69,7.52-4.44,1.76-2.76-8.78-8.75-10.61-9.72Z"/><path class="cls-1" d="m403.53,415.8c-2.1,0-4.33-.73-6.65-2.19-4.23-2.66-34.09-13.27-61.14-12.94-14.32.18-28.93,5.53-40.67,9.83-12.37,4.53-19.84,7.26-25.19,3.31-2.87-2.12-4.04-5.66-3.07-9.25,3.11-11.44,31-26.86,63.69-30.36,38.26-4.09,66.9,12.49,69.86,14.29,5.59,2.96,12.43,7.5,13.76,12.5.57,2.16.25,4.36-.92,6.2-.2.33-.34.74-.5,1.13-.82,2.01-2.36,5.74-6.48,7.06-.87.28-1.76.42-2.68.42Zm-1.37-10.59h.04-.04Zm-65.19-17.33c18.06,0,37.69,4.38,51.22,8.67-9.64-4.51-30.76-12.38-56.34-9.64-14.37,1.54-26.37,5.39-35.29,9.46,11.2-3.98,25.07-8.3,39.01-8.47.46,0,.93,0,1.39,0Z"/><path class="cls-1" d="m496.34,400.69s18.8-20.42,49.04-20.74c30.25-.31,53.7,16.22,49.96,21.09-3.74,4.86-29.18-9.91-50.96-7.1-21.79,2.81-51.05,21.22-54.85,25.4-3.8,4.18,2.18-5.4.31-7.91-1.87-2.51,5.25-9.59,6.51-10.75Z"/><path class="cls-1" d="m488.29,426.81c-1.38,0-2.52-.48-3.3-.96-4.68-2.82-2.84-7.9-2.15-9.81.23-.63.64-1.76.85-2.57-2.38-5.73,2.91-12.44,8.16-17.32,2.32-2.43,22.18-22.26,53.48-22.59,27.7-.31,51.05,12.51,55.69,21.8,1.67,3.34,1.44,6.91-.6,9.57-4.33,5.63-11.98,3.41-22.58.33-9.76-2.83-21.89-6.35-32.64-4.98-19.67,2.54-47.43,19.67-50.95,23.38-2.19,2.41-4.25,3.15-5.95,3.15Zm57.94-40.47c-.26,0-.52,0-.78,0-20.19.21-34.97,10.49-41.18,15.71,11.78-6.4,26.74-12.83,39.29-14.45,7.91-1.02,16.08,0,23.58,1.62-6.14-1.71-13.23-2.89-20.91-2.89Zm-49.88,14.35h.04-.04Z"/><path class="cls-1" d="m473.41,584.7c-2.69,0-5.2-1.72-6.08-4.42-1.09-3.36.75-6.96,4.1-8.05,16.4-5.32,25.66-11.16,29.17-18.37,5.16-10.61-.75-26.7-9.69-51.05l-.67-1.81c-15.39-41.95-7.45-90.8-7.36-91.29.61-3.48,3.94-5.78,7.4-5.19,3.48.61,5.8,3.92,5.19,7.4-.08.45-7.24,46.49,6.77,84.67l.67,1.81c9.71,26.44,16.72,45.54,9.19,61.04-5.2,10.69-16.52,18.38-36.71,24.93-.66.21-1.32.31-1.98.31Z"/></g></svg>