<?xml version="1.0" encoding="UTF-8"?><svg id="Layer_2" xmlns="http://www.w3.org/2000/svg" viewBox="0 0 188.92 290.84"><defs><style>.cls-1{fill:#6cc1ee;}.cls-2{fill:#836449;}.cls-3{stroke-width:2px;}.cls-3,.cls-4{fill:#050505;}.cls-3,.cls-4,.cls-5,.cls-6{stroke:#050505;stroke-linecap:round;stroke-linejoin:round;}.cls-4,.cls-5,.cls-6{stroke-width:3px;}.cls-5{fill:#fff;}.cls-6{fill:none;}</style></defs><g id="Layer_1-2"><path class="cls-3" d="m55.85,148.17s1.09,6.26-3.7,11.36c0,0,.45-4.85-2.04-7.28-2.49-2.43-4.21-.26-6,3.19-1.79,3.45-6.83,8.23-13.02,8.94-6.19.7,6.26-3.06,5.11-10.09-1.15-7.02-11.87-7.98-17.87-22.72-6-14.74-6.64-21.19-3.45-32.68,3.19-11.49-.57-42.19,18.38-64.02,18.96-21.83,35.94-23.23,44.94-21.32,0,0,16-21.85,53.45-7.89,37.45,13.96,43.32,65.11,37.79,84.43-5.53,19.32-1.96,20.98-5.96,26.38,0,0,1.4-10.6-5.96-13.96s-6.94,49.04,3.34,55.62c0,0-4.34,1.53-7.02-2.3s-1.72,2.01-.45,2.94-3.83-.1-6.38-5.81-41.62-43.6-91.15-4.79Z"/><path class="cls-5" d="m161.23,90.72c.57,10.34-3.32,21.64-3.96,32.94-.64,11.3-.96,44.64-46.23,49.57-45.28,4.94-59.57-29.79-59.57-29.79,0,0-14.32.89-21.98-13.4-7.66-14.3.89-29.55,16.21-22.6,0,0,4.06-8.77,3.81-17.96-.26-9.19.6-17.28,7.32-24,6.72-6.72,5.96-9.34,10.38-15.04s24.79-22.53,44.04-16.21c0,0,22.47-7.21,34.6,12.7,9.88,16.23,9.45,36.81,12,40.3,2.55,3.49,3.38,3.49,3.38,3.49Z"/><path class="cls-6" d="m115,85.11c-.26,1.45-1.91,12.01,1.66,20.65,3.57,8.64,6.38,18.36-5.36,18.67"/><path class="cls-6" d="m89.93,141.15s1.85-1.79,4.21.13,21.7,11.17,36-.38"/><path class="cls-4" d="m95.2,76.74s-6.93-3.57-15.7-1.91c-8.78,1.66-14.36,6.77-12.93,7.66,1.44.89,7.72-3.93,14.23-4.53s13.98,1.31,15.38,2.04,1.32-.5,1.68-1.18-2.22-1.88-2.66-2.07Z"/><path class="cls-4" d="m124.57,78.51s-1.6.43-.94,1.91c.91,2.06,6.17-.98,8.83-1.3s11.15,3.32,12.66,4.36c1.51,1.04,1-1.98-1.79-4.77-2.79-2.79-10.09-3.32-18.77-.21Z"/><path class="cls-3" d="m187.21,245.85c-2.72-4.94-17.19-45.87-29.28-53.11-12.09-7.23-19.57-7.66-18.89-10.89.68-3.23,2.72-3.66.85-6.47-1.87-2.8,1.51-5.69-2.52-10.51-6.42,4.03-14.95,7.06-26.33,8.3-21.66,2.36-36.22-4.35-45.53-12-.82,0-7.53.21-6.9,4.77.68,4.85-3.91,8.6-2.72,13.45,1.19,4.85,1.53,5.96,1.53,5.96,0,0-12.94,1.28-22.64,11.57C25.08,207.21-.62,246.02,1.08,248.83s56.77,42.98,70.13,40.94c13.36-2.04,98.13-30.64,105.7-34.21,7.57-3.57,13.02-4.77,10.3-9.7Z"/><ellipse class="cls-4" cx="84.41" cy="96.34" rx="2.81" ry="5.23"/><ellipse class="cls-4" cx="126.79" cy="96.34" rx="2.81" ry="5.23"/><ellipse class="cls-6" cx="84.83" cy="99.49" rx="15.06" ry="10.57"/><ellipse class="cls-6" cx="131.58" cy="99.49" rx="14.33" ry="10.57"/><line class="cls-6" x1="69.76" y1="99.08" x2="46.14" y2="99.08"/><path class="cls-6" d="m99.89,99.08s16.47-4.21,17.43,1.15"/><line class="cls-6" x1="145.91" y1="99.08" x2="162" y2="99.08"/><rect class="cls-1" x="132.41" y="221.52" width="13.01" height="7.85" transform="translate(324.27 36.32) rotate(76.06)"/><rect class="cls-2" x="142.25" y="219.08" width="13.01" height="7.8" transform="translate(-31.83 421.06) rotate(-103.94)"/></g></svg>