<?xml version="1.0" encoding="UTF-8"?><svg id="Layer_2" xmlns="http://www.w3.org/2000/svg" viewBox="0 0 188.92 280.94"><defs><style>.cls-1{fill:#6cc1ee;}.cls-2{fill:#836449;}.cls-3,.cls-4{stroke-width:2px;}.cls-3,.cls-4,.cls-5,.cls-6,.cls-7{stroke:#050505;}.cls-3,.cls-4,.cls-6{fill:#050505;}.cls-3,.cls-5,.cls-6{stroke-miterlimit:10;}.cls-4,.cls-7{stroke-linecap:round;stroke-linejoin:round;}.cls-5{fill:#fff;}.cls-5,.cls-6,.cls-7{stroke-width:3px;}.cls-7{fill:none;}</style></defs><g id="Layer_1-2"><path class="cls-3" d="m156.76,91.89s16.6-33.7,1.53-60.51C143.22,4.57,112.46,1.64,100.84,2.79c0,0-31.91-11.36-59.23,23.23s-6.38,84.89-5.62,85.02,120.77-19.15,120.77-19.15Z"/><path class="cls-3" d="m40.46,102.49s-18.45-6.7-24.38,11.49c-5.94,18.19,14.36,32.11,26.04,21.19s6.32-27.19-1.66-32.68Z"/><path class="cls-3" d="m37.14,132.1s4.85,10.6-2.04,16.02c0,0,5.23-1.02,7.53-9.19,0,0,4.34,18.51-7.02,25.02,0,0,7.98-2.04,13.66-13.91,0,0,2.81,4.21,1.79,8.55,0,0,6.38-14.04,3.32-26.94l-9.83-5.74-7.4,6.19Z"/><path class="cls-5" d="m158.54,81.17s-2.21,18.98-2.98,29.53c-.77,10.55-6.47,51.66-49.36,52.77-38.91,1-53.62-27.74-53.62-27.74,0,0-15.66-.26-21.79-16.85-6.13-16.6,6.04-29.02,17.7-22.3,0,0,5.53.34,8.85-12.94,3.32-13.28,12.68-38.55,35.91-44.43,23.23-5.87,28.94-7.32,30.98-13.28,0,0,39.23,17.87,34.3,55.23Z"/><ellipse class="cls-6" cx="86.54" cy="94.87" rx="2.81" ry="5.23"/><ellipse class="cls-6" cx="129.31" cy="94.96" rx="2.81" ry="5.23"/><path class="cls-7" d="m121.01,85.93s-2.72,9.28-.34,17.36c2.38,8.09,9.36,14.89-1.7,18.04"/><path class="cls-6" d="m101.27,80.64s-11.44-8.03-21.87-6.87c-5.55.62-9.38,6.45-9.02,6.38,2.02-.36,8.81-5.11,17.53-2.13,8.72,2.98,11.87,4.85,12.6,4.51s.77-1.89.77-1.89Z"/><path class="cls-6" d="m124.1,81.72s6.9-7.48,16.47-6.49c5.94.62,9.99,5.18,8.89,5.06s-4.75-3.72-10.55-3.04c-6.03.7-13.47,6.59-14.36,5.56-.48-.56-.13-.28-.45-1.09Z"/><path class="cls-7" d="m125.8,136.06s-19.47,12.83-33.32-4.72"/><path class="cls-4" d="m187.21,235.95c-2.72-4.94-17.19-45.87-29.28-53.11-12.09-7.23-19.57-7.66-18.89-10.89.68-3.23,2.72-3.66.85-6.47-1.87-2.8,1.51-5.69-2.52-10.51-6.42,4.03-14.95,7.06-26.33,8.3-21.66,2.36-36.22-4.35-45.53-12-.82,0-7.53.21-6.9,4.77.68,4.85-3.91,8.6-2.72,13.45,1.19,4.85,1.53,5.96,1.53,5.96,0,0-12.94,1.28-22.64,11.57C25.08,197.31-.62,236.12,1.08,238.93s56.77,42.98,70.13,40.94c13.36-2.04,98.13-30.64,105.7-34.21,7.57-3.57,13.02-4.77,10.3-9.7Z"/><rect class="cls-1" x="132.41" y="211.62" width="13.01" height="7.85" transform="translate(314.66 28.81) rotate(76.06)"/><rect class="cls-2" x="142.25" y="209.18" width="13.01" height="7.8" transform="translate(-22.22 408.78) rotate(-103.94)"/></g></svg>