<?xml version="1.0" encoding="UTF-8"?><svg id="Layer_2" xmlns="http://www.w3.org/2000/svg" viewBox="0 0 190.19 298.38"><defs><style>.cls-1,.cls-2{fill:#050505;}.cls-3{fill:#fff;}.cls-4{fill:#6cc1ee;}.cls-5{fill:#836449;}.cls-2{stroke:#050505;stroke-linecap:round;stroke-linejoin:round;stroke-width:2px;}</style></defs><g id="Layer_1-2"><path class="cls-1" d="m66.2,24.8S91.84-3.73,120.77,1.6c28.93,5.33,42.73,41.94,50.88,54.33,8.15,12.39,14.11,10.19,14.11,10.19,0,0-6.82,5.64-11.92,2.35-5.1-3.29,3.37,4.63,0,14.03-3.37,9.41-19.52,27.13-23.52,40.92-4,13.8-115.01-4.23-115.01-4.23,0,0-15.21-13.17-17.25-40.14-2.04-26.97,24.77-64.13,48.14-54.25Z"/><path class="cls-1" d="m126.93,129.56c-8.51,0-20.04-.59-35.71-2.14-27.96-2.75-55.79-7.25-56.06-7.3l-.26-.04-.2-.18c-.63-.55-15.53-13.74-17.57-40.78-1.34-17.71,9.41-40.06,24.47-50.89,8.3-5.96,16.7-7.53,24.36-4.55,3.61-3.77,27.99-27.99,54.98-23.02,23.89,4.4,37.33,29.15,46.23,45.53,2.01,3.7,3.75,6.9,5.27,9.21,7.54,11.46,12.96,9.84,13.01,9.82l4.74-1.56-3.83,3.18c-.29.24-7.09,5.78-12.64,2.65,1.09,2.66,3,7.76,1.01,13.32-1.49,4.15-5.21,9.61-9.52,15.93-5.5,8.06-11.74,17.2-13.98,24.94-.49,1.68-1.71,5.87-24.29,5.87Zm-91.19-11.25c2.97.48,29.27,4.64,55.68,7.24,50.29,4.96,57.31-.02,58-2.38,2.33-8.03,8.65-17.3,14.23-25.48,4.06-5.96,7.9-11.58,9.31-15.5,1.84-5.13-.09-9.81-1.12-12.32-.58-1.4-.93-2.25-.21-2.85.75-.62,1.71,0,2.73.66,2.73,1.76,6.15.52,8.4-.71-2.75-.68-6.99-3.07-11.89-10.52-1.57-2.38-3.32-5.61-5.35-9.35-8.72-16.06-21.91-40.33-44.91-44.57-28.06-5.17-53.44,22.63-53.69,22.91l-.45.5-.62-.26c-9.07-3.83-17.59.11-23.14,4.1-14.34,10.3-24.96,32.38-23.69,49.21,1.86,24.6,14.99,37.69,16.73,39.32Z"/><path class="cls-3" d="m49.5,147.34s12.07,31.75,50.8,32.61c38.73.86,51.11-21.48,52.84-45.94,1.72-24.46,4.08-29.71,3.14-38.41,0,0-12.62-3.61-15.68-19.76s-10.82-32.93-30.42-30.42c-19.6,2.51-25.4,12.94-31.36,7.21,0,0-9.25-1.1-14.66,9.72-5.41,10.82-9.17,38.65-20.38,47.67,0,0-20.85-11.83-23.13,9.09-1.96,18.03,13.41,28.85,28.85,28.22Z"/><path class="cls-1" d="m102.45,181.39c-.72,0-1.44,0-2.18-.02-20.48-.46-33.55-9.53-40.9-17.06-6.49-6.64-9.74-13.15-10.8-15.53-8.82.09-17.23-3.33-22.78-9.26-5.15-5.51-7.41-12.62-6.55-20.55.68-6.21,3-10.38,6.91-12.38,6.33-3.24,14.7.38,17.43,1.74,6.65-6.04,10.68-19.8,13.94-30.93,1.79-6.12,3.48-11.9,5.37-15.67,5.79-11.58,15.67-10.54,16.09-10.49.31.04.59.17.81.39,2.32,2.23,4.32,1.44,9.77-1.16,4.62-2.21,10.95-5.23,20.43-6.44,16.62-2.13,27.68,8.79,31.99,31.56,2.85,15.04,14.2,18.52,14.68,18.66.55.16.95.64,1.01,1.21.53,4.94.04,8.83-.78,15.28-.67,5.23-1.58,12.39-2.35,23.39-1.53,21.69-11.87,47.28-52.11,47.28Zm-52.95-35.47c.58,0,1.11.36,1.32.91.12.31,12.24,30.87,49.51,31.7,31.98.72,49.26-14.3,51.4-44.63.78-11.08,1.7-18.28,2.37-23.54.77-6.04,1.21-9.54.86-13.73-3.12-1.21-13.02-6.12-15.75-20.53-4.04-21.36-13.75-31.21-28.85-29.28-9.03,1.16-15.12,4.06-19.57,6.19-5.1,2.44-8.84,4.22-12.56,1-1.74-.04-8.51.38-12.81,8.97-1.77,3.55-3.43,9.21-5.19,15.2-3.66,12.51-7.81,26.69-15.58,32.93-.45.36-1.08.41-1.58.13-.09-.05-9.51-5.29-15.64-2.15-3.01,1.54-4.82,4.96-5.38,10.16-.77,7.09,1.24,13.43,5.8,18.32,5.2,5.56,13.26,8.68,21.58,8.34.02,0,.04,0,.06,0Z"/><ellipse class="cls-1" cx="80.78" cy="112.14" rx="2.59" ry="4.82"/><path class="cls-1" d="m80.78,118.37c-2.28,0-4.01-2.68-4.01-6.24s1.72-6.24,4.01-6.24,4.01,2.68,4.01,6.24-1.72,6.24-4.01,6.24Zm0-9.64c-.22,0-1.18,1.14-1.18,3.41s.95,3.41,1.18,3.41,1.18-1.14,1.18-3.41-.95-3.41-1.18-3.41Z"/><ellipse class="cls-1" cx="124.96" cy="110.18" rx="2.59" ry="4.82"/><path class="cls-1" d="m124.96,116.41c-2.28,0-4.01-2.68-4.01-6.24s1.72-6.24,4.01-6.24,4.01,2.68,4.01,6.24-1.72,6.24-4.01,6.24Zm0-9.64c-.22,0-1.18,1.14-1.18,3.41s.95,3.41,1.18,3.41,1.18-1.14,1.18-3.41-.95-3.41-1.18-3.41Z"/><path class="cls-1" d="m112.3,136.52c-.62,0-1.18-.4-1.36-1.03-.22-.75.22-1.53.97-1.75,3.14-.9,4.99-2.11,5.5-3.59.74-2.14-1.35-5.05-2.73-6.97-2.77-3.85-2.85-14.31-2.85-15.49,0-.78.63-1.41,1.41-1.41s1.41.63,1.41,1.41c0,2.95.42,11.2,2.32,13.84,1.73,2.4,4.33,6.02,3.11,9.55-.85,2.44-3.27,4.2-7.4,5.38-.13.04-.26.06-.39.06Z"/><path class="cls-1" d="m105.42,157.78c-.65,0-1.32-.03-2.01-.1-7.32-.69-14.36-5.08-20.94-13.06-.5-.6-.41-1.49.19-1.99.6-.5,1.49-.41,1.99.19,6.08,7.37,12.47,11.42,19.02,12.04,7.43.7,12.45-3.37,12.5-3.41.6-.5,1.49-.42,1.99.19.5.6.42,1.49-.19,1.99-.22.18-5.08,4.14-12.56,4.14Z"/><path class="cls-1" d="m76.71,127.09c-3.92,0-7.75-.18-10.39-.7-6.86-1.35-7.58-12.29-7.57-16.93v-.09c-.07-1.58.52-3.01,1.71-4.14,5.22-4.93,21.61-3.57,26.51-3.03,6.8.74,12.43,1.79,12.32,7-.08,3.6-.75,10.14-1.39,12.36-.78,2.71-2.47,4.11-5.66,4.69-1.71.31-8.76.86-15.53.86Zm-15.13-17.84s0,.1,0,.21c-.01,6.05,1.36,13.38,5.28,14.15,6.46,1.27,22.17.33,24.88-.16,2.38-.43,3.02-1.24,3.44-2.68.52-1.79,1.2-7.99,1.28-11.63.04-1.98-1.5-3.22-9.79-4.13-9.75-1.07-21.02-.77-24.26,2.28-.61.57-.87,1.2-.83,1.97h0Z"/><path class="cls-1" d="m61.81,112.84s.31,1.72-1.8,1.72-2.43-6.98-3.68-9.02,2.94-.59,5.02-1.41,11.05-3.02,21.4-1.96c10.35,1.06,16.42,1.37,16.46,4.31s.59,5.8-.31,5.8-2.51,1.06-2.74-1.1c-.24-2.16.35-5.29-1.65-6.27s-13.64-1.61-21.56-1.18c-7.92.43-10.58,2.47-10.74,5.02-.16,2.55-.39,4.08-.39,4.08Z"/><path class="cls-1" d="m60.01,115.51c-2.07,0-2.73-2.89-3.44-5.96-.32-1.41-.66-2.87-1.05-3.51-.42-.68-.48-1.28-.19-1.79.5-.87,1.61-.84,3.02-.8.94.03,1.99.06,2.64-.2,2.68-1.06,11.89-3.04,21.85-2.02l2.69.27c9.4.93,14.58,1.45,14.62,4.97.01.83.06,1.66.11,2.41.13,2.03.21,3.26-.42,3.94-.25.26-.58.41-.95.41-.1,0-.32.05-.51.1-.63.15-1.5.35-2.25-.18-.52-.37-.82-.97-.92-1.85-.06-.57-.07-1.19-.08-1.78-.03-1.91-.12-3.29-1.04-3.74-1.69-.83-12.89-1.53-21.09-1.08-4.39.24-9.67,1.15-9.85,4.13-.13,2.18-.32,3.61-.38,4.04.03.35.01,1.12-.53,1.76-.34.41-1,.89-2.23.89Zm-2.73-10.17c.47.92.79,2.32,1.13,3.79.3,1.29.99,4.32,1.6,4.49.38,0,.66-.08.77-.21.11-.13.11-.36.1-.43l-.02-.14.02-.16s.23-1.52.38-3.99c.14-2.23,1.69-3.82,4.7-4.8-2.19.43-3.7.88-4.28,1.11-1.01.4-2.27.36-3.39.33-.3,0-.69-.02-1.01-.01Zm38.66-.47c1.02,1.2,1.05,3.06,1.07,4.62,0,.58.02,1.13.07,1.61.05.42.14.53.14.53.09.03.5-.07.72-.12.16-.04.33-.08.49-.1.05-.52-.01-1.57-.07-2.38-.05-.77-.1-1.63-.12-2.51,0-.71-.86-1.23-2.32-1.64Z"/><path class="cls-1" d="m121.2,123.27c-1.72,0-2.94-.95-3.98-4.33-1.34-4.35-1.75-11.6-1.79-12.16v-.12c-.09-.88-.27-2.96,1.89-4.42,2.02-1.37,21.33-4.33,24.35-4,3.7.4,3.59,3.41,3.51,5.61-.02.56-.04,1.17-.03,1.82.08,3.31-.51,7.47-1.13,10.12-.56,2.4-1.29,2.96-2.93,3.77-.24.12-.5.25-.81.41-2.37,1.28-16.2,3.02-17.32,3.11-.24.02-.47.06-.68.09-.38.06-.74.1-1.08.1Zm19.64-22.24c-4.1,0-20.46,2.78-21.97,3.58-.71.48-.7.98-.63,1.81l.02.19c0,.07.4,7.4,1.66,11.49.76,2.46,1,2.42,1.9,2.27.29-.05.6-.1.92-.12,2.25-.17,14.66-1.95,16.19-2.77.34-.18.63-.33.9-.46,1.09-.54,1.11-.55,1.43-1.88.56-2.39,1.13-6.36,1.06-9.4-.02-.7,0-1.37.03-1.99.09-2.58-.03-2.59-.98-2.7-.14-.02-.32-.02-.53-.02Z"/><path class="cls-1" d="m118.6,107.9s.2,2.34-.52,2.47-2.05.79-2.08-.61-1.13-6.56.71-7.23c1.84-.68,17.82-5.02,23.15-4.23,5.33.78,4.98,2.23,4.9,4.74-.08,2.51-1,2.76-2.47,2.94s-.02-4.04-1.02-4.7.2-1.31-7.13-.78c-7.33.53-15.87,2.83-15.71,3.67s.18,3.73.18,3.73Z"/><path class="cls-1" d="m116.76,111.58c-.35,0-.71-.08-1.04-.32-.29-.22-.65-.65-.66-1.48,0-.27-.06-.69-.12-1.2-.3-2.59-.71-6.15,1.44-6.94,1.68-.62,17.91-5.12,23.61-4.28,5.49.81,5.82,2.55,5.72,5.32v.38c-.11,3.2-1.63,3.65-3.31,3.85-.45.06-.86-.08-1.18-.37-.67-.63-.61-1.75-.55-2.94.03-.5.07-1.32-.02-1.61-.23-.17-.38-.33-.49-.45-.17-.19-.46-.51-5.96-.11-6.54.47-13.29,2.27-14.78,3.06.1,1.1.12,2.99.13,3.37.12,1.45-.01,3.2-1.29,3.44-.1.02-.22.05-.35.09-.32.09-.73.2-1.15.2Zm1.43-8.53c-.54.16-.93.28-1.15.36-.35.13-.66,1.09-.22,4.95.06.54.11.98.13,1.31.15-.03.34-.08.47-.11.07-.02.13-.04.2-.05.07-.32.1-.97.05-1.53v-.07c-.01-1.09-.06-3.01-.16-3.57-.06-.31.02-.63.23-.9.1-.13.25-.26.46-.39Zm20.06-3.7c2.23,0,2.78.32,3.33.93.08.09.13.15.22.2.9.6.84,1.87.77,3.21-.02.37-.05.94-.02,1.29.93-.13,1.23-.34,1.28-1.99v-.39c.09-2.07.12-2.77-4.09-3.39-1.42-.21-3.7-.02-6.28.37.21-.02.42-.04.63-.05,1.83-.13,3.18-.2,4.18-.2Z"/><rect class="cls-1" x="39.55" y="105.94" width="17.8" height="2.83"/><path class="cls-1" d="m99.48,109.83l-.55-1.8c14.59-4.49,18.31-1.63,18.91-1.01l-1.36,1.31c-2.02-2.09-11.5-.19-17,1.5Z"/><rect class="cls-1" x="141.94" y="100.08" width="18.01" height="2.83" transform="translate(-16.26 29.88) rotate(-10.73)"/><path class="cls-1" d="m97.6,93.75s-11.94-8.31-23.32-7.9c-6.06.22-10.54,5.45-10.14,5.42,2.21-.2,9.84-4.23,19.13-.85,9.29,3.38,12.59,5.35,13.4,5.07s.94-1.73.94-1.73Z"/><path class="cls-1" d="m96.48,96.93c-.78,0-1.82-.44-4.09-1.39-2.05-.86-5.15-2.17-9.61-3.79-6.84-2.49-12.86-.66-16.09.33-1.05.32-1.81.55-2.43.61l-.83.08-.96-1.39.4-.83c.52-1.02,5.13-5.88,11.36-6.1,11.72-.42,23.68,7.81,24.18,8.16l.68.47-.08.82c-.04.4-.3,2.4-1.89,2.94-.21.07-.41.11-.63.11Zm-20.87-9.28c2.48,0,5.23.38,8.13,1.43,4.53,1.65,7.67,2.97,9.75,3.85.04.02.09.04.13.05-4.2-2.35-11.91-5.99-19.29-5.72-1.38.05-2.68.4-3.83.9,1.53-.29,3.25-.51,5.11-.51Z"/><path class="cls-1" d="m118.89,94.58s4.4-8.11,12.14-8.79c4.8-.43,8.68,3.13,7.78,3.21s-4.3-2.65-8.81-1.05c-4.69,1.67-9.74,8.38-10.6,7.57-.46-.44-.14-.24-.51-.94Z"/><path class="cls-1" d="m119.54,97.04c-.39,0-.75-.15-1.12-.49-.38-.36-.6-.64-.71-1.13-.01-.05-.04-.1-.08-.18l-.35-.67.36-.67c.2-.36,4.86-8.78,13.26-9.53,4.55-.4,9.28,2.47,9.45,4.36.08.86-.54,1.59-1.41,1.67-.6.05-1.14-.18-1.9-.51-1.5-.64-3.77-1.61-6.56-.62-2.36.84-5.02,3.29-6.96,5.08-1.71,1.57-2.92,2.69-3.97,2.69Z"/><path class="cls-2" d="m187.21,253.39c-2.72-4.94-17.19-45.87-29.28-53.11-12.09-7.23-19.57-7.66-18.89-10.89.68-3.23,2.72-3.66.85-6.47-1.87-2.8,1.51-5.69-2.52-10.51-6.42,4.03-14.95,7.06-26.33,8.3-21.66,2.36-36.22-4.35-45.53-12-.82,0-7.53.21-6.9,4.77.68,4.85-3.91,8.6-2.72,13.45,1.19,4.85,1.53,5.96,1.53,5.96,0,0-12.94,1.28-22.64,11.57C25.08,214.75-.62,253.56,1.08,256.36s56.77,42.98,70.13,40.94c13.36-2.04,98.13-30.64,105.7-34.21,7.57-3.57,13.02-4.77,10.3-9.7Z"/><rect class="cls-4" x="132.41" y="229.06" width="13.01" height="7.85" transform="translate(331.58 42.04) rotate(76.06)"/><rect class="cls-5" x="142.25" y="226.61" width="13.01" height="7.8" transform="translate(-39.14 430.41) rotate(-103.94)"/></g></svg>