<?xml version="1.0" encoding="UTF-8"?><svg id="Layer_2" xmlns="http://www.w3.org/2000/svg" viewBox="0 0 188.92 288.34"><defs><style>.cls-1{fill:#6cbae4;}.cls-2{fill:#836348;}.cls-3{stroke-width:2px;}.cls-3,.cls-4,.cls-5,.cls-6,.cls-7,.cls-8{stroke-linecap:round;stroke-linejoin:round;}.cls-3,.cls-4,.cls-5,.cls-6,.cls-8{stroke:#060404;}.cls-3,.cls-5{fill:#060404;}.cls-4,.cls-5,.cls-6,.cls-7,.cls-8{stroke-width:3px;}.cls-6{fill:#fff;}.cls-7{stroke:#050505;}.cls-7,.cls-8{fill:none;}</style></defs><g id="Layer_1-2"><path class="cls-3" d="m187.21,243.35c-2.72-4.94-17.19-45.87-29.28-53.11-12.09-7.23-19.57-7.66-18.89-10.89.68-3.23,2.72-3.66.85-6.47-1.87-2.8,1.51-5.69-2.52-10.51-6.42,4.03-14.95,7.06-26.33,8.3-21.66,2.36-36.22-4.35-45.53-12-.82,0-7.53.21-6.9,4.77.68,4.85-3.91,8.6-2.72,13.45,1.19,4.85,1.53,5.96,1.53,5.96,0,0-12.94,1.28-22.64,11.57C25.08,204.71-.62,243.52,1.08,246.33s56.77,42.98,70.13,40.94c13.36-2.04,98.13-30.64,105.7-34.21,7.57-3.57,13.02-4.77,10.3-9.7Z"/><rect class="cls-1" x="132.41" y="219.02" width="13.01" height="7.85" transform="translate(321.84 34.42) rotate(76.06)"/><rect class="cls-2" x="142.25" y="216.58" width="13.01" height="7.8" transform="translate(-29.4 417.96) rotate(-103.94)"/><path class="cls-6" d="m167.6,54.05s20.09,96.17-43.57,112.34c-63.66,16.17-81.7-22.47-81.7-22.47,0,0-23.66,7.66-28.6-13.28-4.94-20.94,14.98-27.91,14.98-27.91,0,0-20.6-38.47,3.06-65.02C55.43,11.16,151.43-3.14,167.6,54.05Z"/><ellipse class="cls-5" cx="86.95" cy="101.67" rx="2.81" ry="5.23"/><ellipse class="cls-5" cx="130.37" cy="99.12" rx="2.81" ry="5.23"/><path class="cls-5" d="m40.79,66.48s4.77-14.21,14.13-20.6c9.36-6.38,36.85-7.66,46.47-4.6s12.94,5.96,12.94,5.96c0,0,4-4.51,17.19-6.3s33.45,4.85,37.96,25.87c0,0,10.64-26.98,3.23-43.23,0,0-3.15,5.19-9.19,2.04-6.04-3.15-20.34-26.04-73.53-24C36.79,3.67-9.08,30.74,10.32,81.97c0,0,12.51-14.47,30.47-15.49Z"/><path class="cls-4" d="m38.92,106.99s-7.06-7.49-18.55,1.02c0,0-5.96-15.32-10.89-28.77-4.94-13.45,32.34-16.34,32.34-16.34,0,0-6.72,26.13-2.89,44.09Z"/><path class="cls-5" d="m61.21,83.16s5.36-6.81,13.11-6.13c7.74.68,25.45,4,26.21,4.6s.17,2.3-1.36,3.57-23.06-6.64-37.96-2.04Z"/><path class="cls-8" d="m117.89,92.1c.09.3-2.98,10.04-.6,14.38s7.96,5.64,9.36,9.04-1.85,6.36-3.26,6.7"/><path class="cls-8" d="m71.26,92.74s.32,13.98,1.15,17.87c.83,3.89,30.64-1.79,30.64-1.79,0,0,.26-12.77-.26-15.19s-31.53-.89-31.53-.89Z"/><path class="cls-8" d="m103.04,100.01s14.46-1.91,19.76-.13"/><line class="cls-8" x1="148.49" y1="96.56" x2="170.32" y2="87.46"/><path class="cls-8" d="m71.38,100.78s-38.23-2.43-42.77,3.19"/><path class="cls-5" d="m151.92,82.12s-4.09-6.81-9.99-6.13-19.4,4-19.98,4.6-.13,2.3,1.04,3.57,17.58-6.64,28.93-2.04Z"/><path class="cls-8" d="m147.6,90.88s-.25,13.97-.89,17.86c-.64,3.89-23.67-1.79-23.67-1.79,0,0-.2-12.76.2-15.18.39-2.42,24.36-.89,24.36-.89Z"/><path class="cls-7" d="m88.83,140.09s1.85-1.79,4.21.13,21.7,11.17,36-.38"/></g></svg>